<mxfile host="app.diagrams.net" modified="2021-07-14T02:46:47.616Z" agent="5.0 (Windows NT 10.0; Win64; x64) AppleWebKit/537.36 (KHTML, like Gecko) Chrome/91.0.4472.124 Safari/537.36" etag="h7vpKYRcDKmb4dmPTVWf" version="14.8.0" type="github" pages="2">
  <diagram id="drw_gt8yQvTW9VSUAXXW" name="week1">
    <mxGraphModel dx="516" dy="815" grid="1" gridSize="10" guides="1" tooltips="1" connect="1" arrows="1" fold="1" page="1" pageScale="1" pageWidth="827" pageHeight="1169" math="0" shadow="0">
      <root>
        <mxCell id="0" />
        <mxCell id="1" parent="0" />
        <mxCell id="oMzJ74gJaNJ8nBiprRx6-38" value="" style="triangle;whiteSpace=wrap;html=1;" parent="1" vertex="1">
          <mxGeometry x="460" y="210" width="40" height="40" as="geometry" />
        </mxCell>
        <mxCell id="oMzJ74gJaNJ8nBiprRx6-39" value="Shaper" style="text;html=1;strokeColor=none;fillColor=none;align=center;verticalAlign=middle;whiteSpace=wrap;rounded=0;" parent="1" vertex="1">
          <mxGeometry x="460" y="190" width="40" height="20" as="geometry" />
        </mxCell>
        <mxCell id="oMzJ74gJaNJ8nBiprRx6-40" value="" style="endArrow=classic;html=1;" parent="1" edge="1">
          <mxGeometry width="50" height="50" relative="1" as="geometry">
            <mxPoint x="500" y="230" as="sourcePoint" />
            <mxPoint x="560" y="230" as="targetPoint" />
          </mxGeometry>
        </mxCell>
        <mxCell id="oMzJ74gJaNJ8nBiprRx6-41" value="CH1" style="text;html=1;strokeColor=none;fillColor=none;align=center;verticalAlign=middle;whiteSpace=wrap;rounded=0;" parent="1" vertex="1">
          <mxGeometry x="550" y="220" width="50" height="20" as="geometry" />
        </mxCell>
        <mxCell id="oMzJ74gJaNJ8nBiprRx6-42" value="" style="endArrow=classic;html=1;" parent="1" edge="1">
          <mxGeometry width="50" height="50" relative="1" as="geometry">
            <mxPoint x="520" y="300" as="sourcePoint" />
            <mxPoint x="560" y="300" as="targetPoint" />
          </mxGeometry>
        </mxCell>
        <mxCell id="oMzJ74gJaNJ8nBiprRx6-43" value="" style="endArrow=none;html=1;" parent="1" edge="1">
          <mxGeometry width="50" height="50" relative="1" as="geometry">
            <mxPoint x="520" y="300" as="sourcePoint" />
            <mxPoint x="520" y="230" as="targetPoint" />
          </mxGeometry>
        </mxCell>
        <mxCell id="oMzJ74gJaNJ8nBiprRx6-45" value="" style="endArrow=classic;html=1;" parent="1" target="oMzJ74gJaNJ8nBiprRx6-46" edge="1">
          <mxGeometry width="50" height="50" relative="1" as="geometry">
            <mxPoint x="630" y="300" as="sourcePoint" />
            <mxPoint x="660" y="300" as="targetPoint" />
          </mxGeometry>
        </mxCell>
        <mxCell id="oMzJ74gJaNJ8nBiprRx6-46" value="Raspberry Pi" style="rounded=0;whiteSpace=wrap;html=1;" parent="1" vertex="1">
          <mxGeometry x="660" y="280" width="70" height="35" as="geometry" />
        </mxCell>
        <mxCell id="oMzJ74gJaNJ8nBiprRx6-47" value="ADALM2000" style="rounded=0;whiteSpace=wrap;html=1;" parent="1" vertex="1">
          <mxGeometry x="560" y="280" width="80" height="35" as="geometry" />
        </mxCell>
        <mxCell id="P8VIV2vG7r_cCEOU-6zK-22" value="- 30 V" style="text;html=1;strokeColor=none;fillColor=none;align=center;verticalAlign=middle;whiteSpace=wrap;rounded=0;" parent="1" vertex="1">
          <mxGeometry x="89.99999999999999" y="270" width="40" height="20" as="geometry" />
        </mxCell>
        <mxCell id="P8VIV2vG7r_cCEOU-6zK-21" value="± 12 V" style="text;html=1;strokeColor=none;fillColor=none;align=center;verticalAlign=middle;whiteSpace=wrap;rounded=0;" parent="1" vertex="1">
          <mxGeometry x="460" y="250" width="40" height="20" as="geometry" />
        </mxCell>
        <mxCell id="P8VIV2vG7r_cCEOU-6zK-14" value="" style="endArrow=classic;html=1;" parent="1" edge="1">
          <mxGeometry x="220" y="170" width="50" height="50" as="geometry">
            <mxPoint x="414" y="229.5" as="sourcePoint" />
            <mxPoint x="460" y="230" as="targetPoint" />
          </mxGeometry>
        </mxCell>
        <mxCell id="p2ucZEChd-r_6ARLZ9V_-3" value="" style="group" parent="1" vertex="1" connectable="0">
          <mxGeometry x="120" y="140" width="313.6" height="210" as="geometry" />
        </mxCell>
        <mxCell id="fkl97X1ODl00tHUgy1YS-1" value="暗箱" style="text;html=1;strokeColor=none;fillColor=none;align=center;verticalAlign=middle;whiteSpace=wrap;rounded=0;" parent="p2ucZEChd-r_6ARLZ9V_-3" vertex="1">
          <mxGeometry x="180" width="50" height="30" as="geometry" />
        </mxCell>
        <mxCell id="SZVYz7t1w3TkIsHKme0W-1" value="" style="endArrow=none;html=1;" parent="p2ucZEChd-r_6ARLZ9V_-3" edge="1">
          <mxGeometry width="50" height="50" relative="1" as="geometry">
            <mxPoint x="30" y="140" as="sourcePoint" />
            <mxPoint x="30" y="90" as="targetPoint" />
          </mxGeometry>
        </mxCell>
        <mxCell id="SZVYz7t1w3TkIsHKme0W-5" value="" style="pointerEvents=1;verticalLabelPosition=bottom;shadow=0;dashed=0;align=center;html=1;verticalAlign=top;shape=mxgraph.electrical.signal_sources.protective_earth;" parent="p2ucZEChd-r_6ARLZ9V_-3" vertex="1">
          <mxGeometry y="175" width="60" height="35" as="geometry" />
        </mxCell>
        <mxCell id="SZVYz7t1w3TkIsHKme0W-6" value="" style="endArrow=none;html=1;" parent="p2ucZEChd-r_6ARLZ9V_-3" edge="1">
          <mxGeometry width="50" height="50" relative="1" as="geometry">
            <mxPoint x="30" y="175" as="sourcePoint" />
            <mxPoint x="30" y="150" as="targetPoint" />
          </mxGeometry>
        </mxCell>
        <mxCell id="p2ucZEChd-r_6ARLZ9V_-1" value="" style="endArrow=none;html=1;" parent="p2ucZEChd-r_6ARLZ9V_-3" edge="1">
          <mxGeometry width="50" height="50" relative="1" as="geometry">
            <mxPoint x="10" y="150" as="sourcePoint" />
            <mxPoint x="50" y="150" as="targetPoint" />
          </mxGeometry>
        </mxCell>
        <mxCell id="p2ucZEChd-r_6ARLZ9V_-2" value="" style="endArrow=none;html=1;" parent="p2ucZEChd-r_6ARLZ9V_-3" edge="1">
          <mxGeometry width="50" height="50" relative="1" as="geometry">
            <mxPoint x="20" y="139" as="sourcePoint" />
            <mxPoint x="40" y="139" as="targetPoint" />
          </mxGeometry>
        </mxCell>
        <mxCell id="P8VIV2vG7r_cCEOU-6zK-23" value="" style="group" parent="p2ucZEChd-r_6ARLZ9V_-3" vertex="1" connectable="0">
          <mxGeometry x="100" y="30" width="213.6" height="120" as="geometry" />
        </mxCell>
        <mxCell id="oMzJ74gJaNJ8nBiprRx6-6" value="" style="rounded=0;whiteSpace=wrap;html=1;" parent="P8VIV2vG7r_cCEOU-6zK-23" vertex="1">
          <mxGeometry width="213.6" height="120" as="geometry" />
        </mxCell>
        <mxCell id="oMzJ74gJaNJ8nBiprRx6-4" value="PIN&lt;br&gt;フォトダイオード" style="rounded=0;whiteSpace=wrap;html=1;" parent="P8VIV2vG7r_cCEOU-6zK-23" vertex="1">
          <mxGeometry x="20" y="35" width="70" height="50" as="geometry" />
        </mxCell>
        <mxCell id="P8VIV2vG7r_cCEOU-6zK-13" value="" style="group" parent="P8VIV2vG7r_cCEOU-6zK-23" vertex="1" connectable="0">
          <mxGeometry x="114" y="10" width="80" height="95" as="geometry" />
        </mxCell>
        <mxCell id="P8VIV2vG7r_cCEOU-6zK-7" value="" style="verticalLabelPosition=bottom;shadow=0;dashed=0;align=center;html=1;verticalAlign=top;shape=mxgraph.electrical.logic_gates.buffer2;" parent="P8VIV2vG7r_cCEOU-6zK-13" vertex="1">
          <mxGeometry width="80" height="40" as="geometry" />
        </mxCell>
        <mxCell id="P8VIV2vG7r_cCEOU-6zK-9" value="" style="pointerEvents=1;verticalLabelPosition=bottom;shadow=0;dashed=0;align=center;html=1;verticalAlign=top;shape=mxgraph.electrical.capacitors.capacitor_1;" parent="P8VIV2vG7r_cCEOU-6zK-13" vertex="1">
          <mxGeometry y="65" width="80" height="30" as="geometry" />
        </mxCell>
        <mxCell id="P8VIV2vG7r_cCEOU-6zK-17" value="Amp" style="text;html=1;strokeColor=none;fillColor=none;align=center;verticalAlign=middle;whiteSpace=wrap;rounded=0;" parent="P8VIV2vG7r_cCEOU-6zK-13" vertex="1">
          <mxGeometry x="10" y="10" width="50" height="20" as="geometry" />
        </mxCell>
        <mxCell id="P8VIV2vG7r_cCEOU-6zK-19" value="± 12 V" style="text;html=1;strokeColor=none;fillColor=none;align=center;verticalAlign=middle;whiteSpace=wrap;rounded=0;" parent="P8VIV2vG7r_cCEOU-6zK-13" vertex="1">
          <mxGeometry x="20" y="30" width="40" height="20" as="geometry" />
        </mxCell>
        <mxCell id="P8VIV2vG7r_cCEOU-6zK-10" value="" style="endArrow=none;html=1;exitX=0;exitY=0.5;exitDx=0;exitDy=0;exitPerimeter=0;entryX=0;entryY=0.5;entryDx=0;entryDy=0;" parent="P8VIV2vG7r_cCEOU-6zK-13" source="P8VIV2vG7r_cCEOU-6zK-9" target="P8VIV2vG7r_cCEOU-6zK-7" edge="1">
          <mxGeometry width="50" height="50" relative="1" as="geometry">
            <mxPoint x="-64" y="70" as="sourcePoint" />
            <mxPoint x="-14" y="20" as="targetPoint" />
          </mxGeometry>
        </mxCell>
        <mxCell id="P8VIV2vG7r_cCEOU-6zK-11" value="" style="endArrow=none;html=1;exitX=1;exitY=0.5;exitDx=0;exitDy=0;exitPerimeter=0;entryX=1;entryY=0.5;entryDx=0;entryDy=0;" parent="P8VIV2vG7r_cCEOU-6zK-13" source="P8VIV2vG7r_cCEOU-6zK-9" target="P8VIV2vG7r_cCEOU-6zK-7" edge="1">
          <mxGeometry width="50" height="50" relative="1" as="geometry">
            <mxPoint x="16" y="70" as="sourcePoint" />
            <mxPoint x="66" y="20" as="targetPoint" />
          </mxGeometry>
        </mxCell>
        <mxCell id="P8VIV2vG7r_cCEOU-6zK-16" value="" style="endArrow=classic;html=1;" parent="P8VIV2vG7r_cCEOU-6zK-23" edge="1">
          <mxGeometry width="50" height="50" relative="1" as="geometry">
            <mxPoint x="90" y="59.5" as="sourcePoint" />
            <mxPoint x="110" y="60" as="targetPoint" />
          </mxGeometry>
        </mxCell>
        <mxCell id="91M8Gy8rBTYqAbeO1A-4-2" value="" style="endArrow=classic;html=1;entryX=0;entryY=0.5;entryDx=0;entryDy=0;" parent="p2ucZEChd-r_6ARLZ9V_-3" target="oMzJ74gJaNJ8nBiprRx6-4" edge="1">
          <mxGeometry width="50" height="50" relative="1" as="geometry">
            <mxPoint x="29.539999999999992" y="90" as="sourcePoint" />
            <mxPoint x="79.53999999999999" y="40" as="targetPoint" />
          </mxGeometry>
        </mxCell>
      </root>
    </mxGraphModel>
  </diagram>
  <diagram id="GAwwYEKa7aJpkJiHyBvi" name="week2">
    <mxGraphModel dx="516" dy="815" grid="1" gridSize="10" guides="1" tooltips="1" connect="1" arrows="1" fold="1" page="1" pageScale="1" pageWidth="827" pageHeight="1169" math="0" shadow="0">
      <root>
        <mxCell id="As1EszLge6HyxUGWxG_5-0" />
        <mxCell id="As1EszLge6HyxUGWxG_5-1" parent="As1EszLge6HyxUGWxG_5-0" />
        <mxCell id="btxTUfGoFCP8n8HAvKUn-20" value="ADALM2000" style="rounded=0;whiteSpace=wrap;html=1;" parent="As1EszLge6HyxUGWxG_5-1" vertex="1">
          <mxGeometry x="450" y="210" width="80" height="40" as="geometry" />
        </mxCell>
        <mxCell id="btxTUfGoFCP8n8HAvKUn-21" value="" style="endArrow=classic;html=1;" parent="As1EszLge6HyxUGWxG_5-1" edge="1">
          <mxGeometry width="50" height="50" relative="1" as="geometry">
            <mxPoint x="530" y="229.5" as="sourcePoint" />
            <mxPoint x="570" y="229.5" as="targetPoint" />
          </mxGeometry>
        </mxCell>
        <mxCell id="btxTUfGoFCP8n8HAvKUn-22" value="Raspberry&lt;br&gt;Pi" style="rounded=0;whiteSpace=wrap;html=1;" parent="As1EszLge6HyxUGWxG_5-1" vertex="1">
          <mxGeometry x="570" y="210" width="80" height="40" as="geometry" />
        </mxCell>
        <mxCell id="_sVx8VqaRWRSyQA4coh_-0" value="- 30 V" style="text;html=1;strokeColor=none;fillColor=none;align=center;verticalAlign=middle;whiteSpace=wrap;rounded=0;" parent="As1EszLge6HyxUGWxG_5-1" vertex="1">
          <mxGeometry x="60" y="270" width="40" height="20" as="geometry" />
        </mxCell>
        <mxCell id="SjDMrahmNfhbdAfNmtwR-0" value="" style="group" parent="As1EszLge6HyxUGWxG_5-1" vertex="1" connectable="0">
          <mxGeometry x="90" y="140" width="313.6" height="210" as="geometry" />
        </mxCell>
        <mxCell id="SjDMrahmNfhbdAfNmtwR-3" value="" style="endArrow=none;html=1;" parent="SjDMrahmNfhbdAfNmtwR-0" edge="1">
          <mxGeometry width="50" height="50" relative="1" as="geometry">
            <mxPoint x="30" y="140" as="sourcePoint" />
            <mxPoint x="30" y="90" as="targetPoint" />
          </mxGeometry>
        </mxCell>
        <mxCell id="SjDMrahmNfhbdAfNmtwR-4" value="" style="pointerEvents=1;verticalLabelPosition=bottom;shadow=0;dashed=0;align=center;html=1;verticalAlign=top;shape=mxgraph.electrical.signal_sources.protective_earth;" parent="SjDMrahmNfhbdAfNmtwR-0" vertex="1">
          <mxGeometry y="175" width="60" height="35" as="geometry" />
        </mxCell>
        <mxCell id="SjDMrahmNfhbdAfNmtwR-5" value="" style="endArrow=none;html=1;" parent="SjDMrahmNfhbdAfNmtwR-0" edge="1">
          <mxGeometry width="50" height="50" relative="1" as="geometry">
            <mxPoint x="30" y="175" as="sourcePoint" />
            <mxPoint x="30" y="150" as="targetPoint" />
          </mxGeometry>
        </mxCell>
        <mxCell id="SjDMrahmNfhbdAfNmtwR-7" value="" style="endArrow=none;html=1;" parent="SjDMrahmNfhbdAfNmtwR-0" edge="1">
          <mxGeometry width="50" height="50" relative="1" as="geometry">
            <mxPoint x="10" y="150" as="sourcePoint" />
            <mxPoint x="50" y="150" as="targetPoint" />
          </mxGeometry>
        </mxCell>
        <mxCell id="SjDMrahmNfhbdAfNmtwR-8" value="" style="endArrow=none;html=1;" parent="SjDMrahmNfhbdAfNmtwR-0" edge="1">
          <mxGeometry width="50" height="50" relative="1" as="geometry">
            <mxPoint x="20" y="139" as="sourcePoint" />
            <mxPoint x="40" y="139" as="targetPoint" />
          </mxGeometry>
        </mxCell>
        <mxCell id="SjDMrahmNfhbdAfNmtwR-9" value="" style="group" parent="SjDMrahmNfhbdAfNmtwR-0" vertex="1" connectable="0">
          <mxGeometry x="100" y="30" width="213.6" height="120" as="geometry" />
        </mxCell>
        <mxCell id="SjDMrahmNfhbdAfNmtwR-10" value="" style="rounded=0;whiteSpace=wrap;html=1;" parent="SjDMrahmNfhbdAfNmtwR-9" vertex="1">
          <mxGeometry width="213.6" height="120" as="geometry" />
        </mxCell>
        <mxCell id="SjDMrahmNfhbdAfNmtwR-11" value="PIN&lt;br&gt;フォトダイオード" style="rounded=0;whiteSpace=wrap;html=1;" parent="SjDMrahmNfhbdAfNmtwR-9" vertex="1">
          <mxGeometry x="20" y="35" width="70" height="50" as="geometry" />
        </mxCell>
        <mxCell id="SjDMrahmNfhbdAfNmtwR-12" value="" style="group" parent="SjDMrahmNfhbdAfNmtwR-9" vertex="1" connectable="0">
          <mxGeometry x="114" y="10" width="80" height="95" as="geometry" />
        </mxCell>
        <mxCell id="SjDMrahmNfhbdAfNmtwR-13" value="" style="verticalLabelPosition=bottom;shadow=0;dashed=0;align=center;html=1;verticalAlign=top;shape=mxgraph.electrical.logic_gates.buffer2;" parent="SjDMrahmNfhbdAfNmtwR-12" vertex="1">
          <mxGeometry width="80" height="40" as="geometry" />
        </mxCell>
        <mxCell id="SjDMrahmNfhbdAfNmtwR-14" value="" style="pointerEvents=1;verticalLabelPosition=bottom;shadow=0;dashed=0;align=center;html=1;verticalAlign=top;shape=mxgraph.electrical.capacitors.capacitor_1;" parent="SjDMrahmNfhbdAfNmtwR-12" vertex="1">
          <mxGeometry y="65" width="80" height="30" as="geometry" />
        </mxCell>
        <mxCell id="SjDMrahmNfhbdAfNmtwR-15" value="Amp" style="text;html=1;strokeColor=none;fillColor=none;align=center;verticalAlign=middle;whiteSpace=wrap;rounded=0;" parent="SjDMrahmNfhbdAfNmtwR-12" vertex="1">
          <mxGeometry x="10" y="10" width="50" height="20" as="geometry" />
        </mxCell>
        <mxCell id="SjDMrahmNfhbdAfNmtwR-16" value="± 12 V" style="text;html=1;strokeColor=none;fillColor=none;align=center;verticalAlign=middle;whiteSpace=wrap;rounded=0;" parent="SjDMrahmNfhbdAfNmtwR-12" vertex="1">
          <mxGeometry x="20" y="30" width="40" height="20" as="geometry" />
        </mxCell>
        <mxCell id="SjDMrahmNfhbdAfNmtwR-17" value="" style="endArrow=none;html=1;exitX=0;exitY=0.5;exitDx=0;exitDy=0;exitPerimeter=0;entryX=0;entryY=0.5;entryDx=0;entryDy=0;" parent="SjDMrahmNfhbdAfNmtwR-12" source="SjDMrahmNfhbdAfNmtwR-14" target="SjDMrahmNfhbdAfNmtwR-13" edge="1">
          <mxGeometry width="50" height="50" relative="1" as="geometry">
            <mxPoint x="-64" y="70" as="sourcePoint" />
            <mxPoint x="-14" y="20" as="targetPoint" />
          </mxGeometry>
        </mxCell>
        <mxCell id="SjDMrahmNfhbdAfNmtwR-18" value="" style="endArrow=none;html=1;exitX=1;exitY=0.5;exitDx=0;exitDy=0;exitPerimeter=0;entryX=1;entryY=0.5;entryDx=0;entryDy=0;" parent="SjDMrahmNfhbdAfNmtwR-12" source="SjDMrahmNfhbdAfNmtwR-14" target="SjDMrahmNfhbdAfNmtwR-13" edge="1">
          <mxGeometry width="50" height="50" relative="1" as="geometry">
            <mxPoint x="16" y="70" as="sourcePoint" />
            <mxPoint x="66" y="20" as="targetPoint" />
          </mxGeometry>
        </mxCell>
        <mxCell id="SjDMrahmNfhbdAfNmtwR-19" value="" style="endArrow=classic;html=1;" parent="SjDMrahmNfhbdAfNmtwR-9" edge="1">
          <mxGeometry width="50" height="50" relative="1" as="geometry">
            <mxPoint x="90" y="59.5" as="sourcePoint" />
            <mxPoint x="110" y="60" as="targetPoint" />
          </mxGeometry>
        </mxCell>
        <mxCell id="zbuCXIa9n0VbTPYxhWHj-0" value="ジップロック" style="text;html=1;strokeColor=none;fillColor=none;align=center;verticalAlign=middle;whiteSpace=wrap;rounded=0;" parent="SjDMrahmNfhbdAfNmtwR-0" vertex="1">
          <mxGeometry x="170" y="10" width="80" height="20" as="geometry" />
        </mxCell>
        <mxCell id="SjDMrahmNfhbdAfNmtwR-1" value="" style="endArrow=classic;html=1;entryX=0;entryY=0.5;entryDx=0;entryDy=0;" parent="SjDMrahmNfhbdAfNmtwR-0" target="SjDMrahmNfhbdAfNmtwR-11" edge="1">
          <mxGeometry width="50" height="50" relative="1" as="geometry">
            <mxPoint x="29.539999999999992" y="90" as="sourcePoint" />
            <mxPoint x="79.53999999999999" y="40" as="targetPoint" />
          </mxGeometry>
        </mxCell>
        <mxCell id="nZ70WhdyNbsm5oI5shQH-1" value="" style="endArrow=classic;html=1;" parent="As1EszLge6HyxUGWxG_5-1" edge="1">
          <mxGeometry width="50" height="50" relative="1" as="geometry">
            <mxPoint x="386" y="229.5" as="sourcePoint" />
            <mxPoint x="450" y="229.5" as="targetPoint" />
          </mxGeometry>
        </mxCell>
      </root>
    </mxGraphModel>
  </diagram>
</mxfile>
